<svg xmlns="http://www.w3.org/2000/svg" xmlns:xlink="http://www.w3.org/1999/xlink" width="18" height="18" viewBox="0 0 18 18">
  <defs>
    <clipPath id="clip-path">
      <rect id="Retângulo_6" data-name="Retângulo 6" width="18" height="18"/>
    </clipPath>
  </defs>
  <g id="Prancheta_1" data-name="Prancheta – 1" clip-path="url(#clip-path)">
    <rect id="Retângulo_5" data-name="Retângulo 5" width="18" height="18" fill="transparent"/>
    <g id="edit" transform="translate(1.781 -0.026)">
      <path id="Caminho_1" data-name="Caminho 1" d="M78.181,132.432v8.5a1.811,1.811,0,0,1-1.773,1.847H65.773A1.811,1.811,0,0,1,64,140.927V129.847A1.811,1.811,0,0,1,65.773,128h7.422" transform="translate(-64 -125.738)" fill="none" stroke="#000" stroke-linecap="round" stroke-linejoin="round" stroke-width="2"/>
      <path id="Caminho_2" data-name="Caminho 2" d="M219.163,48.242a.692.692,0,0,0-1.029-.026l-.548.568a.38.38,0,0,0,0,.522l.5.523a.345.345,0,0,0,.5,0l.534-.554A.774.774,0,0,0,219.163,48.242Zm-2.686,1.7-8,8.32a.42.42,0,0,0-.1.181L208,59.588a.186.186,0,0,0,.044.179.168.168,0,0,0,.172.045l1.1-.386a.4.4,0,0,0,.174-.107l7.986-8.335a.428.428,0,0,0,0-.585l-.441-.462A.388.388,0,0,0,216.477,49.939Z" transform="translate(-203.167 -48)"/>
    </g>
  </g>
</svg>
